# xmcd CD database file
#
# Track frame offsets:
#	150
#	13203
#	28350
#	40690
#	57885
#	69328
#	84503
#	99540
#	111948
#	125310
#	136875
#	151065
#	166675
#	177478
#
# Disc length: 2498 seconds
#
# Revision: 2
# Processed by: cddbd v1.4PL0 Copyright (c) Steve Scherf et al.
# Submitted via: CDex 1.50beta9
#
DISCID=b009c00e
DTITLE=Kenny Rogers - Gold
DYEAR=1900
DGENRE=Country
TTITLE0=Ruby (Don't Take Your Love To Town)
TTITLE1=Just Dropped In (To See What Condition My Condition Was In)
TTITLE2=Ruben James
TTITLE3=Something's Burning
TTITLE4=Me and Bobby McGee
TTITLE5=For The Good Times
TTITLE6=Tell It All Brother
TTITLE7=Shadow In The Corner Of Your Mind
TTITLE8=Shine On Ruby Mountain
TTITLE9=Poem For A Little Lady
TTITLE10=It's Raining In My Mind
TTITLE11=Tulsa Turnaround
TTITLE12=Goodtime Liberator
TTITLE13=Where Does Rosie Go
EXTD=
EXTT0=
EXTT1=
EXTT2=
EXTT3=
EXTT4=
EXTT5=
EXTT6=
EXTT7=
EXTT8=
EXTT9=
EXTT10=
EXTT11=
EXTT12=
EXTT13=
PLAYORDER=
